<mxfile modified="2022-07-26T02:47:11.002Z" host="app.diagrams.net" agent="5.0 (Windows NT 10.0; Win64; x64) AppleWebKit/537.36 (KHTML, like Gecko) Chrome/103.0.5060.134 Safari/537.36 Edg/103.0.1264.71" etag="CrE3ZVjuhpNw5omqZdUB" version="20.2.0" type="github">
  <diagram id="Ht1M8jgEwFfnCIfOTk4-" name="Page-1">
    <mxGraphModel dx="1360" dy="748" grid="1" gridSize="10" guides="1" tooltips="1" connect="1" arrows="1" fold="1" page="1" pageScale="1" pageWidth="827" pageHeight="1169" math="0" shadow="0">
      <root>
        <mxCell id="0" />
        <mxCell id="1" parent="0" />
        <mxCell id="xRcYIgEl4kE04P5R9CLf-3" value="" style="rounded=0;whiteSpace=wrap;html=1;" vertex="1" parent="1">
          <mxGeometry x="39" y="161" width="1240" height="719" as="geometry" />
        </mxCell>
        <mxCell id="xRcYIgEl4kE04P5R9CLf-40" value="" style="rounded=0;whiteSpace=wrap;html=1;fillStyle=dots;fontSize=18;strokeColor=#000000;fillColor=none;gradientColor=#4D27AA;dashed=1;" vertex="1" parent="1">
          <mxGeometry x="951" y="300.5" width="150" height="440" as="geometry" />
        </mxCell>
        <mxCell id="xRcYIgEl4kE04P5R9CLf-41" value="" style="rounded=0;whiteSpace=wrap;html=1;fillStyle=dots;fontSize=18;strokeColor=#000000;fillColor=none;gradientColor=#4D27AA;dashed=1;" vertex="1" parent="1">
          <mxGeometry x="690" y="300.5" width="150" height="440" as="geometry" />
        </mxCell>
        <mxCell id="xRcYIgEl4kE04P5R9CLf-39" value="" style="rounded=0;whiteSpace=wrap;html=1;fillStyle=dots;fontSize=18;strokeColor=#000000;fillColor=none;gradientColor=#4D27AA;dashed=1;" vertex="1" parent="1">
          <mxGeometry x="429" y="300" width="150" height="440" as="geometry" />
        </mxCell>
        <mxCell id="-QjtrjUzRDEMRZ5MF8oH-47" value="Title text" style="text;html=1;resizable=0;points=[];autosize=1;align=left;verticalAlign=top;spacingTop=-4;fontSize=30;fontStyle=1" parent="1" vertex="1">
          <mxGeometry x="12" y="65.5" width="130" height="40" as="geometry" />
        </mxCell>
        <mxCell id="-QjtrjUzRDEMRZ5MF8oH-48" value="Subtitle text&lt;br style=&quot;font-size: 16px&quot;&gt;" style="text;html=1;resizable=0;points=[];autosize=1;align=left;verticalAlign=top;spacingTop=-4;fontSize=16" parent="1" vertex="1">
          <mxGeometry x="12" y="115.5" width="100" height="20" as="geometry" />
        </mxCell>
        <mxCell id="SCVMTBWpLvtzJIhz15lM-1" value="" style="line;strokeWidth=2;html=1;fontSize=14;" parent="1" vertex="1">
          <mxGeometry x="8" y="140.5" width="1060" height="10" as="geometry" />
        </mxCell>
        <mxCell id="xRcYIgEl4kE04P5R9CLf-4" value="" style="sketch=0;points=[[0,0,0],[0.25,0,0],[0.5,0,0],[0.75,0,0],[1,0,0],[0,1,0],[0.25,1,0],[0.5,1,0],[0.75,1,0],[1,1,0],[0,0.25,0],[0,0.5,0],[0,0.75,0],[1,0.25,0],[1,0.5,0],[1,0.75,0]];outlineConnect=0;fontColor=#232F3E;gradientColor=#945DF2;gradientDirection=north;fillColor=#5A30B5;strokeColor=#ffffff;dashed=0;verticalLabelPosition=bottom;verticalAlign=top;align=center;html=1;fontSize=12;fontStyle=0;aspect=fixed;shape=mxgraph.aws4.resourceIcon;resIcon=mxgraph.aws4.vpc;" vertex="1" parent="1">
          <mxGeometry x="40" y="161" width="49" height="49" as="geometry" />
        </mxCell>
        <mxCell id="xRcYIgEl4kE04P5R9CLf-5" value="" style="rounded=0;whiteSpace=wrap;html=1;fillStyle=dots;dashed=1;dashPattern=1 1;" vertex="1" parent="1">
          <mxGeometry x="308" y="224" width="870" height="246" as="geometry" />
        </mxCell>
        <mxCell id="xRcYIgEl4kE04P5R9CLf-7" value="" style="rounded=0;whiteSpace=wrap;html=1;fillStyle=dots;dashed=1;dashPattern=1 1;" vertex="1" parent="1">
          <mxGeometry x="303" y="575" width="870" height="246" as="geometry" />
        </mxCell>
        <mxCell id="xRcYIgEl4kE04P5R9CLf-8" value="" style="rounded=0;whiteSpace=wrap;html=1;fillStyle=dots;" vertex="1" parent="1">
          <mxGeometry x="408" y="252" width="192" height="188" as="geometry" />
        </mxCell>
        <mxCell id="xRcYIgEl4kE04P5R9CLf-9" value="" style="rounded=0;whiteSpace=wrap;html=1;fillStyle=dots;" vertex="1" parent="1">
          <mxGeometry x="930" y="253" width="192" height="188" as="geometry" />
        </mxCell>
        <mxCell id="xRcYIgEl4kE04P5R9CLf-10" value="" style="rounded=0;whiteSpace=wrap;html=1;fillStyle=dots;" vertex="1" parent="1">
          <mxGeometry x="669" y="253" width="192" height="188" as="geometry" />
        </mxCell>
        <mxCell id="xRcYIgEl4kE04P5R9CLf-11" value="" style="rounded=0;whiteSpace=wrap;html=1;fillStyle=dots;" vertex="1" parent="1">
          <mxGeometry x="930" y="604" width="192" height="188" as="geometry" />
        </mxCell>
        <mxCell id="xRcYIgEl4kE04P5R9CLf-12" value="" style="rounded=0;whiteSpace=wrap;html=1;fillStyle=dots;" vertex="1" parent="1">
          <mxGeometry x="669" y="604" width="192" height="188" as="geometry" />
        </mxCell>
        <mxCell id="xRcYIgEl4kE04P5R9CLf-13" value="" style="rounded=0;whiteSpace=wrap;html=1;fillStyle=dots;" vertex="1" parent="1">
          <mxGeometry x="409" y="604" width="192" height="188" as="geometry" />
        </mxCell>
        <mxCell id="xRcYIgEl4kE04P5R9CLf-17" value="" style="sketch=0;points=[[0,0,0],[0.25,0,0],[0.5,0,0],[0.75,0,0],[1,0,0],[0,1,0],[0.25,1,0],[0.5,1,0],[0.75,1,0],[1,1,0],[0,0.25,0],[0,0.5,0],[0,0.75,0],[1,0.25,0],[1,0.5,0],[1,0.75,0]];outlineConnect=0;fontColor=#232F3E;gradientColor=#00AB56;gradientDirection=north;fillColor=#00AB56;strokeColor=#000000;dashed=0;verticalLabelPosition=bottom;verticalAlign=top;align=center;html=1;fontSize=12;fontStyle=0;aspect=fixed;shape=mxgraph.aws4.resourceIcon;resIcon=mxgraph.aws4.site_to_site_vpn;fillStyle=dots;" vertex="1" parent="1">
          <mxGeometry x="408" y="253" width="38" height="38" as="geometry" />
        </mxCell>
        <mxCell id="xRcYIgEl4kE04P5R9CLf-18" value="" style="sketch=0;points=[[0,0,0],[0.25,0,0],[0.5,0,0],[0.75,0,0],[1,0,0],[0,1,0],[0.25,1,0],[0.5,1,0],[0.75,1,0],[1,1,0],[0,0.25,0],[0,0.5,0],[0,0.75,0],[1,0.25,0],[1,0.5,0],[1,0.75,0]];outlineConnect=0;fontColor=#232F3E;gradientColor=#49AAEB;gradientDirection=north;fillColor=#49AAEB;strokeColor=#000000;dashed=0;verticalLabelPosition=bottom;verticalAlign=top;align=center;html=1;fontSize=12;fontStyle=0;aspect=fixed;shape=mxgraph.aws4.resourceIcon;resIcon=mxgraph.aws4.site_to_site_vpn;fillStyle=dots;" vertex="1" parent="1">
          <mxGeometry x="930" y="753" width="38" height="38" as="geometry" />
        </mxCell>
        <mxCell id="xRcYIgEl4kE04P5R9CLf-23" value="" style="sketch=0;points=[[0,0,0],[0.25,0,0],[0.5,0,0],[0.75,0,0],[1,0,0],[0,1,0],[0.25,1,0],[0.5,1,0],[0.75,1,0],[1,1,0],[0,0.25,0],[0,0.5,0],[0,0.75,0],[1,0.25,0],[1,0.5,0],[1,0.75,0]];outlineConnect=0;fontColor=#232F3E;gradientColor=#00AB56;gradientDirection=north;fillColor=#00AB56;strokeColor=#000000;dashed=0;verticalLabelPosition=bottom;verticalAlign=top;align=center;html=1;fontSize=12;fontStyle=0;aspect=fixed;shape=mxgraph.aws4.resourceIcon;resIcon=mxgraph.aws4.site_to_site_vpn;fillStyle=dots;" vertex="1" parent="1">
          <mxGeometry x="409" y="753" width="38" height="38" as="geometry" />
        </mxCell>
        <mxCell id="xRcYIgEl4kE04P5R9CLf-24" value="" style="sketch=0;points=[[0,0,0],[0.25,0,0],[0.5,0,0],[0.75,0,0],[1,0,0],[0,1,0],[0.25,1,0],[0.5,1,0],[0.75,1,0],[1,1,0],[0,0.25,0],[0,0.5,0],[0,0.75,0],[1,0.25,0],[1,0.5,0],[1,0.75,0]];outlineConnect=0;fontColor=#232F3E;gradientColor=#49AAEB;gradientDirection=north;fillColor=#49AAEB;strokeColor=#000000;dashed=0;verticalLabelPosition=bottom;verticalAlign=top;align=center;html=1;fontSize=12;fontStyle=0;aspect=fixed;shape=mxgraph.aws4.resourceIcon;resIcon=mxgraph.aws4.site_to_site_vpn;fillStyle=dots;" vertex="1" parent="1">
          <mxGeometry x="669" y="253" width="38" height="38" as="geometry" />
        </mxCell>
        <mxCell id="xRcYIgEl4kE04P5R9CLf-25" value="" style="sketch=0;points=[[0,0,0],[0.25,0,0],[0.5,0,0],[0.75,0,0],[1,0,0],[0,1,0],[0.25,1,0],[0.5,1,0],[0.75,1,0],[1,1,0],[0,0.25,0],[0,0.5,0],[0,0.75,0],[1,0.25,0],[1,0.5,0],[1,0.75,0]];outlineConnect=0;fontColor=#232F3E;gradientColor=#49AAEB;gradientDirection=north;fillColor=#49AAEB;strokeColor=#000000;dashed=0;verticalLabelPosition=bottom;verticalAlign=top;align=center;html=1;fontSize=12;fontStyle=0;aspect=fixed;shape=mxgraph.aws4.resourceIcon;resIcon=mxgraph.aws4.site_to_site_vpn;fillStyle=dots;" vertex="1" parent="1">
          <mxGeometry x="930" y="253" width="38" height="38" as="geometry" />
        </mxCell>
        <mxCell id="xRcYIgEl4kE04P5R9CLf-26" value="" style="sketch=0;points=[[0,0,0],[0.25,0,0],[0.5,0,0],[0.75,0,0],[1,0,0],[0,1,0],[0.25,1,0],[0.5,1,0],[0.75,1,0],[1,1,0],[0,0.25,0],[0,0.5,0],[0,0.75,0],[1,0.25,0],[1,0.5,0],[1,0.75,0]];outlineConnect=0;fontColor=#232F3E;gradientColor=#49AAEB;gradientDirection=north;fillColor=#49AAEB;strokeColor=#000000;dashed=0;verticalLabelPosition=bottom;verticalAlign=top;align=center;html=1;fontSize=12;fontStyle=0;aspect=fixed;shape=mxgraph.aws4.resourceIcon;resIcon=mxgraph.aws4.site_to_site_vpn;fillStyle=dots;" vertex="1" parent="1">
          <mxGeometry x="669" y="753" width="38" height="38" as="geometry" />
        </mxCell>
        <mxCell id="xRcYIgEl4kE04P5R9CLf-27" value="" style="sketch=0;outlineConnect=0;fontColor=#232F3E;gradientColor=#4D27AA;fillColor=#4D27AA;strokeColor=none;dashed=0;verticalLabelPosition=bottom;verticalAlign=top;align=center;html=1;fontSize=12;fontStyle=0;aspect=fixed;pointerEvents=1;shape=mxgraph.aws4.internet_gateway;fillStyle=dots;" vertex="1" parent="1">
          <mxGeometry x="50" y="481.5" width="78" height="78" as="geometry" />
        </mxCell>
        <mxCell id="xRcYIgEl4kE04P5R9CLf-28" value="" style="sketch=0;points=[[0,0,0],[0.25,0,0],[0.5,0,0],[0.75,0,0],[1,0,0],[0,1,0],[0.25,1,0],[0.5,1,0],[0.75,1,0],[1,1,0],[0,0.25,0],[0,0.5,0],[0,0.75,0],[1,0.25,0],[1,0.5,0],[1,0.75,0]];outlineConnect=0;fontColor=#232F3E;gradientColor=#945DF2;gradientDirection=north;fillColor=#5A30B5;strokeColor=#ffffff;dashed=0;verticalLabelPosition=bottom;verticalAlign=top;align=center;html=1;fontSize=12;fontStyle=0;aspect=fixed;shape=mxgraph.aws4.resourceIcon;resIcon=mxgraph.aws4.elastic_load_balancing;fillStyle=dots;" vertex="1" parent="1">
          <mxGeometry x="308" y="481.5" width="78" height="78" as="geometry" />
        </mxCell>
        <mxCell id="xRcYIgEl4kE04P5R9CLf-29" value="" style="sketch=0;points=[[0,0,0],[0.25,0,0],[0.5,0,0],[0.75,0,0],[1,0,0],[0,1,0],[0.25,1,0],[0.5,1,0],[0.75,1,0],[1,1,0],[0,0.25,0],[0,0.5,0],[0,0.75,0],[1,0.25,0],[1,0.5,0],[1,0.75,0]];outlineConnect=0;fontColor=#232F3E;gradientColor=#F78E04;gradientDirection=north;fillColor=#D05C17;strokeColor=#ffffff;dashed=0;verticalLabelPosition=bottom;verticalAlign=top;align=center;html=1;fontSize=12;fontStyle=0;aspect=fixed;shape=mxgraph.aws4.resourceIcon;resIcon=mxgraph.aws4.ec2;fillStyle=dots;" vertex="1" parent="1">
          <mxGeometry x="465" y="629" width="78" height="78" as="geometry" />
        </mxCell>
        <mxCell id="xRcYIgEl4kE04P5R9CLf-30" value="" style="sketch=0;points=[[0,0,0],[0.25,0,0],[0.5,0,0],[0.75,0,0],[1,0,0],[0,1,0],[0.25,1,0],[0.5,1,0],[0.75,1,0],[1,1,0],[0,0.25,0],[0,0.5,0],[0,0.75,0],[1,0.25,0],[1,0.5,0],[1,0.75,0]];outlineConnect=0;fontColor=#232F3E;gradientColor=#F78E04;gradientDirection=north;fillColor=#D05C17;strokeColor=#ffffff;dashed=0;verticalLabelPosition=bottom;verticalAlign=top;align=center;html=1;fontSize=12;fontStyle=0;aspect=fixed;shape=mxgraph.aws4.resourceIcon;resIcon=mxgraph.aws4.ec2;fillStyle=dots;" vertex="1" parent="1">
          <mxGeometry x="726" y="320" width="78" height="78" as="geometry" />
        </mxCell>
        <mxCell id="xRcYIgEl4kE04P5R9CLf-31" value="" style="sketch=0;points=[[0,0,0],[0.25,0,0],[0.5,0,0],[0.75,0,0],[1,0,0],[0,1,0],[0.25,1,0],[0.5,1,0],[0.75,1,0],[1,1,0],[0,0.25,0],[0,0.5,0],[0,0.75,0],[1,0.25,0],[1,0.5,0],[1,0.75,0]];outlineConnect=0;fontColor=#232F3E;gradientColor=#F78E04;gradientDirection=north;fillColor=#D05C17;strokeColor=#ffffff;dashed=0;verticalLabelPosition=bottom;verticalAlign=top;align=center;html=1;fontSize=12;fontStyle=0;aspect=fixed;shape=mxgraph.aws4.resourceIcon;resIcon=mxgraph.aws4.ec2;fillStyle=dots;" vertex="1" parent="1">
          <mxGeometry x="465" y="320" width="78" height="78" as="geometry" />
        </mxCell>
        <mxCell id="xRcYIgEl4kE04P5R9CLf-34" value="" style="sketch=0;points=[[0,0,0],[0.25,0,0],[0.5,0,0],[0.75,0,0],[1,0,0],[0,1,0],[0.25,1,0],[0.5,1,0],[0.75,1,0],[1,1,0],[0,0.25,0],[0,0.5,0],[0,0.75,0],[1,0.25,0],[1,0.5,0],[1,0.75,0]];outlineConnect=0;fontColor=#232F3E;gradientColor=#F78E04;gradientDirection=north;fillColor=#D05C17;strokeColor=#ffffff;dashed=0;verticalLabelPosition=bottom;verticalAlign=top;align=center;html=1;fontSize=12;fontStyle=0;aspect=fixed;shape=mxgraph.aws4.resourceIcon;resIcon=mxgraph.aws4.ec2;fillStyle=dots;" vertex="1" parent="1">
          <mxGeometry x="726" y="629" width="78" height="78" as="geometry" />
        </mxCell>
        <mxCell id="xRcYIgEl4kE04P5R9CLf-35" value="&lt;font style=&quot;font-size: 18px;&quot;&gt;Amazon EC2&lt;/font&gt;" style="text;html=1;strokeColor=none;fillColor=none;align=center;verticalAlign=middle;whiteSpace=wrap;rounded=0;fillStyle=dots;" vertex="1" parent="1">
          <mxGeometry x="700" y="707" width="130" height="30" as="geometry" />
        </mxCell>
        <mxCell id="xRcYIgEl4kE04P5R9CLf-36" value="&lt;font style=&quot;font-size: 18px;&quot;&gt;Amazon EC2&lt;/font&gt;" style="text;html=1;strokeColor=none;fillColor=none;align=center;verticalAlign=middle;whiteSpace=wrap;rounded=0;fillStyle=dots;" vertex="1" parent="1">
          <mxGeometry x="439" y="706" width="130" height="30" as="geometry" />
        </mxCell>
        <mxCell id="xRcYIgEl4kE04P5R9CLf-37" value="&lt;font style=&quot;font-size: 18px;&quot;&gt;Amazon EC2&lt;/font&gt;" style="text;html=1;strokeColor=none;fillColor=none;align=center;verticalAlign=middle;whiteSpace=wrap;rounded=0;fillStyle=dots;" vertex="1" parent="1">
          <mxGeometry x="700" y="398" width="130" height="30" as="geometry" />
        </mxCell>
        <mxCell id="xRcYIgEl4kE04P5R9CLf-38" value="&lt;font style=&quot;font-size: 18px;&quot;&gt;Amazon EC2&lt;/font&gt;" style="text;html=1;strokeColor=none;fillColor=none;align=center;verticalAlign=middle;whiteSpace=wrap;rounded=0;fillStyle=dots;" vertex="1" parent="1">
          <mxGeometry x="440" y="398" width="130" height="30" as="geometry" />
        </mxCell>
        <mxCell id="xRcYIgEl4kE04P5R9CLf-42" value="&lt;font color=&quot;#00ab56&quot; style=&quot;font-size: 18px;&quot;&gt;Public Subnet&lt;/font&gt;" style="text;html=1;strokeColor=none;fillColor=none;align=center;verticalAlign=middle;whiteSpace=wrap;rounded=0;fillStyle=dots;" vertex="1" parent="1">
          <mxGeometry x="447" y="760" width="130" height="30" as="geometry" />
        </mxCell>
        <mxCell id="xRcYIgEl4kE04P5R9CLf-43" value="&lt;font color=&quot;#00ab56&quot; style=&quot;font-size: 18px;&quot;&gt;Public Subnet&lt;/font&gt;" style="text;html=1;strokeColor=none;fillColor=none;align=center;verticalAlign=middle;whiteSpace=wrap;rounded=0;fillStyle=dots;" vertex="1" parent="1">
          <mxGeometry x="447" y="257" width="130" height="30" as="geometry" />
        </mxCell>
        <mxCell id="xRcYIgEl4kE04P5R9CLf-44" value="&lt;font color=&quot;#49aaeb&quot; style=&quot;font-size: 18px;&quot;&gt;Private Subnet&lt;/font&gt;" style="text;html=1;strokeColor=none;fillColor=none;align=center;verticalAlign=middle;whiteSpace=wrap;rounded=0;fillStyle=dots;" vertex="1" parent="1">
          <mxGeometry x="971" y="760" width="130" height="30" as="geometry" />
        </mxCell>
        <mxCell id="xRcYIgEl4kE04P5R9CLf-45" value="&lt;font color=&quot;#49aaeb&quot; style=&quot;font-size: 18px;&quot;&gt;Private Subnet&lt;/font&gt;" style="text;html=1;strokeColor=none;fillColor=none;align=center;verticalAlign=middle;whiteSpace=wrap;rounded=0;fillStyle=dots;" vertex="1" parent="1">
          <mxGeometry x="971" y="257" width="130" height="30" as="geometry" />
        </mxCell>
        <mxCell id="xRcYIgEl4kE04P5R9CLf-46" value="&lt;font color=&quot;#49aaeb&quot; style=&quot;font-size: 18px;&quot;&gt;Private Subnet&lt;/font&gt;" style="text;html=1;strokeColor=none;fillColor=none;align=center;verticalAlign=middle;whiteSpace=wrap;rounded=0;fillStyle=dots;" vertex="1" parent="1">
          <mxGeometry x="710" y="760" width="130" height="30" as="geometry" />
        </mxCell>
        <mxCell id="xRcYIgEl4kE04P5R9CLf-47" value="&lt;font color=&quot;#49aaeb&quot; style=&quot;font-size: 18px;&quot;&gt;Private Subnet&lt;/font&gt;" style="text;html=1;strokeColor=none;fillColor=none;align=center;verticalAlign=middle;whiteSpace=wrap;rounded=0;fillStyle=dots;" vertex="1" parent="1">
          <mxGeometry x="710" y="257" width="130" height="30" as="geometry" />
        </mxCell>
      </root>
    </mxGraphModel>
  </diagram>
</mxfile>
